# xmcd
#
# Track frame offsets:
#	150
#	12435
#	26578
#	40430
#	58274
#	73424
#	88228
#	103586
#	119742
#	138874
#	155465
#	170269
#	187513
#	202672
#	218573
#	230679
#	247867
#	262973
#	280119
#	292777
#
# Disc length: 4078 seconds
#
# Revision: 1
# Processed by: cddbd v1.5.1PL0 Copyright (c) Steve Scherf et al.
# Submitted via: audiograbber 1.83.01
#
DISCID=170fec14
DTITLE=Various Artist - RC39
DYEAR=1996
DGENRE=Country
TTITLE0=Alan Jackson - Little Bitty
TTITLE1=Reba McEntire - The Fear Of Being Alone
TTITLE2=Trace Adkins - Every Light In The House
TTITLE3=John Michael Montgomery - Friends
TTITLE4=John Berry - Change My Mind
TTITLE5=Terri Clark - Poor Poor Pitiful Me
TTITLE6=Tracy Lawrence - Is That A Tear
TTITLE7=David Kersh - Goodnight Sweetheart
TTITLE8=Garth Brooks - That Ol' Wind
TTITLE9=Brooks and Dunn - Mama Don't Get Dressed Up For Nothing
TTITLE10=Ricochet - Love Is Stronger Than Pride
TTITLE11=Deana Carter - Strawberry Wine
TTITLE12=Kevin Sharp - Nobody Knows
TTITLE13=Tracy Byrd - Big Love
TTITLE14=Mila Mason - That's Enough Of That
TTITLE15=Tim McGraw - Maybe We Should Just Sleep On It
TTITLE16=Diamond Rio - It's All In Your Head
TTITLE17=LeAnn Rimes - One Way Ticket (Because I Can)
TTITLE18=Gary Allan - Her Man
TTITLE19=John Michael Montgomery - Ain't Got Nothin' On Us
EXTD=
EXTT0=
EXTT1=
EXTT2=
EXTT3=
EXTT4=
EXTT5=
EXTT6=
EXTT7=
EXTT8=
EXTT9=
EXTT10=
EXTT11=
EXTT12=
EXTT13=
EXTT14=
EXTT15=
EXTT16=
EXTT17=
EXTT18=
EXTT19=
PLAYORDER=
